<?xml version="1.0" encoding="utf-8"?>
<!-- Generator: Adobe Illustrator 26.4.0, SVG Export Plug-In . SVG Version: 6.00 Build 0)  -->
<svg version="1.1" id="Calque_1" xmlns="http://www.w3.org/2000/svg" xmlns:xlink="http://www.w3.org/1999/xlink" x="0px" y="0px"
	 viewBox="0 0 305.42 156.26" style="enable-background:new 0 0 305.42 156.26;" xml:space="preserve">
<style type="text/css">
	.st0{fill:#FFFFFF;}
</style>
<g>
	<path class="st0" d="M295.24,100.43c-2.09-0.18-4.98,0.08-8.67,0.94c-1.75,0.41-4.58-2.32-2.15-3.49c1.3-0.63,6.95-3.21,13.25-4.33
		c1.74-5.93,2.7-12.21,2.7-18.71c0-36.58-29.66-66.24-66.24-66.24c-23.53,0-44.19,12.28-55.94,30.78
		c-5.61-0.09-11.31-0.17-17.06-0.23c0-0.01-0.01-0.04-0.01-0.04c0.57-2.27,7.53-11.34,7.53-11.34c-3.23,2.94-8.71,7.4-13.57,11.32
		c-15.4-0.12-31.1-0.12-46.49,0.02c-3.28-3.65-6.58-7.27-9.92-10.87c3.18,3.65,6.38,7.27,9.61,10.87
		c-9.47,0.09-18.81,0.22-27.87,0.41c8.74,0.17,17.73,0.29,26.84,0.37c-1.36,0.74-3.57,2.44-6.24,4.71
		c-6.8,5.36-16.82,14.28-24.17,20.79c1.13-12.59,1.9-25.08,0.64-25.87c-2.59-1.62-24.3,20.28-24.3,20.28s12.44-9.65,13.44-8.94
		c1.21,0.85-0.16,13.14-1.87,25.8c-7.21,6.24-18.5,15.85-19.18,15.36c0,0,1.71-14.53,2.91-28.31c0.67-0.64,1.35-1.28,2-1.96
		c-0.66,0.41-1.3,0.86-1.94,1.3c0-0.04,0.01-0.09,0.01-0.13l-1.07,0.84c-1.2,0.84-2.37,1.72-3.51,2.63
		c-0.03,0.46-0.07,0.92-0.1,1.38c-0.07,0.92-0.13,1.85-0.22,2.77c0.59-0.21,1.22-0.34,1.86-0.39c-0.46,1.08-1.2,2-2.09,2.7
		c-0.62,6.22-1.49,12.41-2.65,18.55c-0.05-5.81,0.14-11.61,0.55-17.4c-0.56,0.19-1.15,0.32-1.76,0.36c0.44-1.01,1.11-1.87,1.92-2.56
		c0.06-0.79,0.13-1.58,0.2-2.37c0.04-0.4,0.08-0.79,0.12-1.19c0-0.01,0-0.01,0-0.02l-4.95,3.88c-1.74,13.51-4.21,29.03-4.54,32.27
		c-4.64-6.14-9.3-12.26-14-18.35c4.61,6.23,9.26,12.44,13.93,18.63c-8.18,0.08-16.26,0.19-24.14,0.34
		c7.64,0.14,15.47,0.25,23.4,0.33c-3.29,2.88-6.53,5.81-9.68,8.83c3.73-2.81,7.38-5.75,10.98-8.74c4.73,6.26,9.49,12.5,14.28,18.72
		c-4.65-6.29-9.34-12.55-14.05-18.79c19.81,0.19,40.24,0.2,60.11,0.02c2.2,2.46,4.41,4.91,6.63,7.35c-0.67,1.14-1.01,2.44-1.01,3.91
		c0,2.21,0.77,4.08,2.3,5.6s3.41,2.29,5.62,2.29c2.23,0,4.11-0.76,5.65-2.29s2.31-3.39,2.31-5.6c0-2.17-0.76-4-2.29-5.5
		s-3.4-2.25-5.6-2.25c-2.28,0-4.18,0.74-5.7,2.22c-0.48,0.46-0.87,0.96-1.19,1.49c-2.15-2.41-4.3-4.83-6.46-7.22
		c9.2-0.08,18.27-0.2,27.11-0.36c-8.75-0.16-17.74-0.28-26.85-0.36c5.53-2.92,21.02-19.43,21.02-19.43s-8.39,7.54-9.39,6.82
		c-0.02-0.01-0.04-0.02-0.06-0.03c0.13-1.1,5.53-47.21,3.65-52.09c0.04,0,0.08,0,0.12,0c3.23,3.59,6.48,7.16,9.77,10.7
		c-3.13-3.59-6.28-7.15-9.46-10.7c8.87,0.07,17.85,0.09,26.81,0.07c-6.27,3.64-25.28,23.71-25.28,23.71s15.19-13.58,16.19-12.87
		c1.21,0.86-0.17,13.22-1.89,25.92c-2.81,2.55-4.61,4.35-4.61,4.35s1.78-1.45,4.47-3.32c-1.83,13.37-3.97,26.76-3.81,27.17
		c0.02,0.05,0.08,0.06,0.17,0.03c2.92,1.14,22.58-19.81,22.58-19.81s-8.39,7.54-9.39,6.82c-0.02-0.01-0.04-0.02-0.06-0.03
		c0.06-0.49,1.17-10,2.22-20.8c6.16-2.5,12.18-2.92,14.13,3.45c2.32,7.6-0.56,26.66-1.09,30c-0.18,0.25-0.28,0.38-0.28,0.38
		c0.06,0.04,0.14,0.06,0.21,0.07c0,0.03-0.01,0.05-0.01,0.05l0.04-0.04c3.22,0.66,18.96-15.33,18.96-15.33s-4.39,2.68-5.72,2.36
		c-0.16-9.56,3.92-31.45-9.6-32.23c-2.74-0.16-6.15,1.08-9.73,3.02c9.09-6.49,19.09-14.78,18.4-19.46c-0.2-1.34-0.52-2.79-0.72-3.62
		c5.66-0.06,11.26-0.14,16.78-0.24c-6.44,10.21-10.18,22.3-10.18,35.27c0,36.58,29.66,66.24,66.24,66.24c2.34,0,4.64-0.12,6.91-0.36
		c-0.65-13.09-0.49-27.41,1.25-41.33c-8.06-6.88-14.5-13.63-18.18-16.56c-3.06,11.42-5.8,20.85-7.3,24.33
		c-3.57,2.97-6.22,5.35-7.27,4.91c-1.05-0.45-1.8-0.74-1.94-1.93c-0.07-0.55,4.29-14.52,9.19-31.65c-0.03-0.09-0.06-0.18-0.08-0.27
		c-8.73,13.92-20.66,26.45-29.56,25.98c-18.4-1.09-8.19-56.79,15-65.51c1.19,0.2,0.99,2.78,0.99,2.78
		c-10.21,6.44-22.4,45.29-12.88,54.11c9.32,8.64,32.31-39.64,24.58-44.9c-2.68-2.28-12.88,12.79-13.18,19.33
		c0.1,1.88,3.5-3.15,5.09-3.15c0.45,0.02,1.87,0.65,1.81,2.3s-9.62,14.53-14.53,12.15c-5.95-2.87,3.87-34,26.96-38.85
		c2.28-0.48,3.97-0.24,5.16,0.56c1.93-8.4,3.35-15.89,3.76-21.17c0,0,4.11-3.71,7.24-5.25c1.44-0.71,1.4,2.47,1.9,3.77
		c0.24,0.61-2.2,11.62-5.58,25.66c3.71-2.07,20.39-10.8,25.56-3.74c1.54,2.11,1.73,4.49,0.96,7c2.02-2.66,4.23-5.13,6.66-7.36
		c1.37-1.15,2.68-1.92,3.92-2.37c11.79-4.24,17.49,21.51,14.15,41.78c-2.07,12.53-7.59,22.96-17.27,22.93
		c-13.87-2.62-1.3-37.39,2.95-39.94c0.12,0,0.23,0.02,0.34,0.05c1.01,0.25,1.74,1.64,1.74,1.64c-1.1,3.56-6.66,22.91-3.08,27.66
		c0.53,0.7,1.25,1.09,2.21,1.06c0.55-0.02,1.1-0.26,1.62-0.68c2.15-1.73,4-6.58,5.15-12.5c2.37-12.24,1.75-28.99-5.42-31.89
		c-2.32-0.87-4.87,0.69-7.42,4.15c-8.66,11.76-17.27,45.61-16.43,82.01c0.03,1.18,0.06,2.36,0.11,3.55
		c14.61-3.4,27.37-11.63,36.49-22.92c-6.1,1.34-11.96,1.61-16.21,0.08c-5.49-1.97-10.81-4.95-15.81-8.35
		c0.11-2.13,0.25-4.23,0.42-6.31c11.73,8.55,24.4,13.2,36.96,6.89c2.74-1.38,5.47-3.27,8.19-5.77
		C299.21,101.6,297.86,100.66,295.24,100.43z M101.31,114.38c1.84,2.02,3.67,4.05,5.52,6.06c-1.82-2.08-3.66-4.13-5.49-6.2
		c0.25-1.09,0.67-2.05,1.29-2.83c1.05-1.31,2.44-1.97,4.18-1.97c1.64,0,2.98,0.67,4.01,2s1.55,3.1,1.55,5.3
		c0,2.05-0.53,3.76-1.58,5.13s-2.43,2.06-4.12,2.06c-1.68,0-3.03-0.67-4.06-2.01s-1.55-3.1-1.55-5.27
		C101.06,115.82,101.16,115.08,101.31,114.38z M69.64,71.87c0.63-7.24,1.61-14.45,2.94-21.59c0.06,6.77-0.21,13.54-0.77,20.29
		c0.59-0.22,1.22-0.35,1.87-0.4c-0.45,1.09-1.18,2.01-2.08,2.72c-0.63,6.64-1.54,13.26-2.77,19.82c-0.06-6.23,0.17-12.46,0.65-18.67
		c-0.53,0.18-1.09,0.3-1.66,0.34C68.22,73.39,68.86,72.55,69.64,71.87z M33.74,104.65c0.06-0.05,0.13-0.1,0.19-0.16
		c5.4-3.1,21.78-18.54,30.75-27.16c-1.67,12.22-3.62,24.6-3.86,27.18C51.74,104.52,42.68,104.56,33.74,104.65z M92.02,103.84
		c-2.63-2.91-5.26-5.81-7.92-8.69c2.61,2.99,5.26,5.95,7.9,8.91c-0.03,0.23-0.05,0.42-0.06,0.57c-9.73-0.08-19.59-0.12-29.43-0.12
		C69.27,100.69,92,77.78,92,77.78S75.09,92.75,74.09,92.03c0,0,1.37-11.65,2.52-23.98c7.75-6.76,20.46-17.67,21.16-17.18
		C100.08,52.51,92.95,96.15,92.02,103.84z M102.35,72.99c-0.63,6.61-1.54,13.19-2.76,19.72c-0.06-6.22,0.17-12.44,0.65-18.64
		c-0.51,0.16-1.04,0.27-1.59,0.31c0.4-0.94,1.01-1.76,1.75-2.42c0.63-7.27,1.61-14.5,2.95-21.68c0.06,6.79-0.21,13.58-0.78,20.34
		c0.64-0.25,1.32-0.41,2.02-0.45C104.1,71.31,103.31,72.27,102.35,72.99z M132.18,72.99c-0.63,6.55-1.53,13.07-2.75,19.54
		c-0.06-6.17,0.17-12.35,0.64-18.5c-0.45,0.13-0.92,0.23-1.4,0.26c0.35-0.89,0.89-1.67,1.55-2.31c0.63-7.33,1.61-14.64,2.96-21.87
		c0.06,6.84-0.21,13.68-0.79,20.5c0.61-0.24,1.26-0.39,1.94-0.43C133.9,71.32,133.13,72.28,132.18,72.99z M157.33,69.9
		c0.75-0.36,1.56-0.59,2.42-0.64c-0.38,0.99-1.01,1.83-1.79,2.51c1.64,6.43,0.7,13.32-1.01,19.65c-0.23-6.15,0.56-12.53-0.74-18.56
		c-0.67,0.28-1.39,0.47-2.13,0.52c0.37-0.93,0.94-1.74,1.66-2.4c-0.12-0.41-0.25-0.81-0.39-1.21c-0.14-0.26-0.51-0.97-0.64-1.23
		c-1.46-2.48-4.28-3.12-7.02-3.32C152.32,64.11,155.57,65.83,157.33,69.9z M137.11,66.69c1.09-11.9,1.91-24.05,1.05-26.7
		c5.33-0.02,10.65-0.05,15.93-0.09c-4.22,3.4-7.8,6.27-8.72,7.15C153.81,51.38,144.63,60.68,137.11,66.69z M152.38,51.83
		c0.78-1.58,1.2-3.42,0.75-5.02c-0.07-0.19-0.16-0.34-0.26-0.4l2.66-2.68C157.62,46.69,154.76,50.25,152.38,51.83z"/>
	<path class="st0" d="M18.51,66.71c2,2.19,4.02,4.35,6.08,6.48c-1.94-2.24-3.91-4.45-5.91-6.63c1.43-1.24,2.96-2.56,4.52-3.9
		c2.38,2.74,4.78,5.46,7.18,8.18c0.82,0.92,1.62,1.86,2.44,2.78c-0.79-0.94-1.6-1.87-2.4-2.82c-2.34-2.77-4.69-5.54-7.06-8.29
		c6.9-5.92,14.24-12.02,14.76-11.64c0.8,0.57,0.47,6.19-0.35,13.61c-0.78,0.74-1.56,1.48-2.31,2.27c0.29-0.18,0.57-0.39,0.86-0.57
		c2.17-1.4,4.25-2.9,6.23-4.53c0.06-0.47,0.11-0.93,0.17-1.4c0.51-3.77,1.1-7.52,1.8-11.26c0.03,3.34-0.03,6.67-0.15,10.01
		c-0.01,0.37-0.03,0.74-0.04,1.11c0.58-0.51,1.15-1.02,1.71-1.55l3.05-2.39c0.6-8.37,0.81-15.22,0.03-16.46
		c3.33,3.7,6.68,7.38,10.06,11.02c-3.27-3.75-6.57-7.48-9.9-11.19c4.28-3.66,8.46-7.43,12.51-11.31
		c-4.49,3.39-8.89,6.92-13.19,10.57c-3.15-3.5-6.32-6.98-9.52-10.43c3.09,3.55,6.21,7.07,9.35,10.57c-0.6,0.51-1.18,1.03-1.77,1.54
		c-4.75,3.14-15.48,13.17-23.94,21.32c-3.45-3.98-6.92-7.94-10.43-11.88c3.39,4.04,6.81,8.05,10.26,12.04
		c-1.53,1.48-2.98,2.88-4.3,4.17c-1.77-1.92-3.55-3.83-5.37-5.71c1.71,1.98,3.46,3.93,5.22,5.86c-4.18,4.08-7.06,6.96-7.06,6.96
		S14.29,70.38,18.51,66.71z"/>
	<path class="st0" d="M53.01,109.97c0.96,0,1.67,0.15,2.15,0.45s0.81,0.86,1,1.68h0.29v-3.42h-0.47c-0.45,0.37-1.24,0.56-2.36,0.56
		h-7.81c-1.09,0-1.84-0.19-2.23-0.56h-0.44v3.42h0.44c0.06-0.76,0.32-1.31,0.79-1.64s1.22-0.5,2.25-0.5h2.16v11.37
		c0,0.86-0.12,1.46-0.35,1.82c-0.24,0.36-0.68,0.54-1.34,0.54v0.43h5.27v-0.43c-0.63,0-1.06-0.16-1.28-0.47s-0.33-0.92-0.33-1.82
		v-11.45H53.01z"/>
	<path class="st0" d="M66.84,121.91l-4.32-12.83h-1.53l-4.12,12.28c-0.31,0.91-0.62,1.51-0.93,1.79c-0.3,0.29-0.73,0.47-1.28,0.55
		v0.43h3.85v-0.43c-0.78-0.02-1.18-0.34-1.18-0.97c0-0.34,0.13-0.89,0.38-1.64l1.02-2.99h4.78l1.38,4.13
		c0.08,0.21,0.11,0.4,0.11,0.57c0,0.59-0.43,0.89-1.28,0.89v0.43h5.24v-0.43c-0.61,0-1.05-0.11-1.33-0.33
		C67.36,123.15,67.09,122.66,66.84,121.91z M59,117.19l2.09-6.31l2.11,6.31H59z"/>
	<path class="st0" d="M77.62,109.24h-7.81c-1.09,0-1.84-0.19-2.23-0.56h-0.44v3.42h0.44c0.06-0.76,0.32-1.31,0.79-1.64
		s1.22-0.5,2.25-0.5h2.16v11.37c0,0.86-0.12,1.46-0.35,1.82c-0.24,0.36-0.68,0.54-1.34,0.54v0.43h5.27v-0.43
		c-0.63,0-1.06-0.16-1.28-0.47s-0.33-0.92-0.33-1.82v-11.45h2.26c0.96,0,1.67,0.15,2.15,0.45s0.81,0.86,1,1.68h0.29v-3.42h-0.47
		C79.53,109.06,78.75,109.24,77.62,109.24z"/>
	<path class="st0" d="M88.77,108.87c-2.28,0-4.18,0.74-5.7,2.22s-2.29,3.32-2.29,5.53s0.77,4.08,2.3,5.6s3.41,2.29,5.62,2.29
		c2.23,0,4.11-0.76,5.65-2.29s2.31-3.39,2.31-5.6c0-2.17-0.76-4-2.29-5.5S90.98,108.87,88.77,108.87z M92.8,121.87
		c-1.05,1.37-2.43,2.06-4.12,2.06c-1.68,0-3.03-0.67-4.06-2.01s-1.55-3.1-1.55-5.27s0.52-3.92,1.57-5.23s2.44-1.97,4.18-1.97
		c1.64,0,2.98,0.67,4.01,2s1.55,3.1,1.55,5.3C94.38,118.79,93.85,120.5,92.8,121.87z"/>
	<path class="st0" d="M126.31,115.39c-1.35-0.81-2.23-1.48-2.64-1.99s-0.61-1.09-0.61-1.71c0-0.68,0.25-1.22,0.74-1.62
		s1.14-0.61,1.94-0.61c0.91,0,1.66,0.27,2.25,0.81c0.6,0.54,0.95,1.29,1.05,2.26h0.44v-3.49h-0.42c-0.05,0.18-0.1,0.29-0.14,0.34
		s-0.12,0.08-0.24,0.08c-0.14,0-0.4-0.06-0.76-0.18c-0.78-0.26-1.5-0.39-2.16-0.39c-1.2,0-2.18,0.36-2.93,1.07s-1.12,1.64-1.12,2.78
		c0,0.59,0.09,1.14,0.28,1.63c0.19,0.5,0.47,0.95,0.86,1.37c0.39,0.42,1.16,0.98,2.32,1.7c1.42,0.87,2.36,1.58,2.81,2.13
		c0.45,0.55,0.67,1.13,0.67,1.73c0,0.8-0.27,1.45-0.82,1.93c-0.54,0.48-1.27,0.72-2.17,0.72c-0.95,0-1.79-0.33-2.5-1
		c-0.71-0.67-1.08-1.56-1.08-2.67h-0.44v4.02h0.44c0.14-0.38,0.33-0.57,0.57-0.57c0.12,0,0.39,0.08,0.82,0.23
		c1.05,0.37,1.91,0.56,2.59,0.56c1.17,0,2.16-0.41,2.99-1.24s1.24-1.83,1.24-3c0-0.91-0.27-1.71-0.81-2.41
		S127.88,116.33,126.31,115.39z"/>
	<path class="st0" d="M141.26,109.67c0.64,0,1.08,0.17,1.31,0.5s0.35,0.96,0.35,1.87v4.24h-8.11v-4.24c0-0.86,0.12-1.47,0.37-1.83
		s0.7-0.54,1.35-0.54v-0.43h-5.38v0.43c0.64,0,1.09,0.17,1.33,0.5c0.24,0.33,0.36,0.96,0.36,1.87v9.29c0,0.87-0.12,1.48-0.36,1.84
		s-0.68,0.53-1.33,0.53v0.43h5.38v-0.43c-0.65,0-1.1-0.17-1.35-0.52s-0.37-0.96-0.37-1.84v-4.32h8.11v4.32
		c0,0.89-0.11,1.51-0.34,1.85c-0.22,0.34-0.67,0.52-1.33,0.52v0.43h5.33v-0.43c-0.63,0-1.07-0.17-1.32-0.51s-0.37-0.96-0.37-1.85
		v-9.29c0-0.89,0.12-1.51,0.37-1.85c0.25-0.35,0.69-0.52,1.32-0.52v-0.43h-5.33V109.67z"/>
	<path class="st0" d="M156.22,108.87c-1.21,0-2.3,0.21-3.3,0.63c-2.76-3.42-5.55-6.82-8.4-10.17c2.69,3.46,5.45,6.87,8.23,10.25
		c-0.82,0.36-1.56,0.86-2.23,1.51c-1.52,1.48-2.29,3.32-2.29,5.53s0.77,4.08,2.3,5.6s3.41,2.29,5.62,2.29
		c2.23,0,4.11-0.76,5.65-2.29s2.31-3.39,2.31-5.6c0-2.17-0.76-4-2.29-5.5S158.43,108.87,156.22,108.87z M160.25,121.87
		c-1.05,1.37-2.43,2.06-4.12,2.06c-1.68,0-3.03-0.67-4.06-2.01s-1.55-3.1-1.55-5.27s0.52-3.92,1.57-5.23
		c0.37-0.46,0.79-0.84,1.24-1.14c1.6,1.93,3.19,3.87,4.81,5.78c-1.54-1.97-3.11-3.92-4.68-5.87c0.8-0.49,1.74-0.74,2.8-0.74
		c1.64,0,2.98,0.67,4.01,2s1.55,3.1,1.55,5.3C161.83,118.79,161.3,120.5,160.25,121.87z"/>
	<path class="st0" d="M176.99,113.47c0-1.24-0.52-2.26-1.55-3.05c-1.04-0.79-2.44-1.18-4.22-1.18h-5.43v0.43
		c0.64,0,1.09,0.17,1.33,0.52c0.24,0.35,0.36,0.97,0.36,1.85v9.34c0,0.83-0.12,1.42-0.36,1.78s-0.68,0.53-1.33,0.53v0.43h5.36v-0.43
		c-0.64,0-1.09-0.17-1.33-0.51s-0.36-0.96-0.36-1.86v-4.17c0.87,0.1,1.63,0.15,2.29,0.15c1.69,0,2.99-0.33,3.9-1
		S176.99,114.71,176.99,113.47z M173.94,115.88c-0.65,0.58-1.53,0.86-2.65,0.86c-0.73,0-1.34-0.08-1.84-0.25v-6.68h1.84
		c1.13,0,2.01,0.35,2.65,1.05s0.96,1.58,0.96,2.66C174.91,114.52,174.59,115.31,173.94,115.88z"/>
	<path class="st0" d="M251.1,46.79c-2.75-4.58-15.18,2.81-19.16,5.34c-1.35,5.52-2.8,11.32-4.26,17.01
		C240.59,62.46,255.5,54.1,251.1,46.79z"/>
	<path class="st0" d="M227.2,76.37c4.9,5.25,10.3,11.05,16.04,16.41c2.11-12.81,5.69-25.02,11.37-35.31c0,0-0.01,0.01-0.01,0.01
		C241.44,70.12,225.43,74.47,227.2,76.37z"/>
	<polygon class="st0" points="178.32,121.68 177.73,120.48 177.13,121.68 175.8,121.87 176.76,122.81 176.54,124.13 177.73,123.51 
		178.91,124.13 178.69,122.81 179.65,121.87 	"/>
</g>
</svg>
